<svg width="39" height="55" viewBox="0 0 39 55" fill="none" xmlns="http://www.w3.org/2000/svg">
<path d="M19.4 0.299988C8.99999 0.299988 0.5 8.80001 0.5 19.2C0.5 24.1 3.6 31.6 9.7 41.3C14.2 48.5 18.7 54.3 18.8 54.3C19 54.5 19.2 54.6 19.5 54.6C19.8 54.6 20 54.5 20.2 54.3C20.2 54.2 24.8 48.4 29.3 41.2C35.4 31.5 38.5 24.1 38.5 19.2C38.3 8.80001 29.8 0.299988 19.4 0.299988ZM19.4 28.3C14.4 28.3 10.3 24.2 10.3 19.2C10.3 14.2 14.4 10.1 19.4 10.1C24.4 10.1 28.5 14.2 28.5 19.2C28.5 24.2 24.4 28.3 19.4 28.3Z" fill="#444444"/>
</svg>
