<svg width="43" height="37" viewBox="0 0 43 37" fill="none" xmlns="http://www.w3.org/2000/svg">
<path d="M38.3908 31.0959H14.04C13.3362 31.0959 12.7731 30.6734 12.6324 29.9693L6.86139 2.93149H1.79416C0.949622 2.93149 0.386597 2.3682 0.386597 1.52327C0.386597 0.678339 0.949622 0.115051 1.79416 0.115051H8.12819C8.83198 0.115051 9.395 0.537516 9.53576 1.24163L15.3068 28.2794H38.3908C39.2353 28.2794 39.7984 28.8427 39.7984 29.6877C39.7984 30.5326 39.2353 31.0959 38.3908 31.0959Z" fill="#212121"/>
<path d="M14.4623 26.8712C13.7585 26.8712 13.1955 26.4488 13.0547 25.7446C12.914 25.0405 13.477 24.1956 14.1808 24.0548L36.9833 19.6893L39.5169 7.15616H10.2396C9.39506 7.15616 8.83203 6.59287 8.83203 5.74794C8.83203 4.90301 9.39506 4.33972 10.2396 4.33972H41.206C41.6283 4.33972 42.0505 4.48055 42.332 4.90301C42.6135 5.18466 42.7543 5.60712 42.6135 6.02959L39.5169 21.2383C39.3762 21.8016 38.9539 22.2241 38.3909 22.3649L14.7438 26.8712C14.603 26.8712 14.603 26.8712 14.4623 26.8712Z" fill="#212121"/>
<path d="M29.9454 12.789H18.6849C17.8404 12.789 17.2773 12.2257 17.2773 11.3808C17.2773 10.5359 17.8404 9.9726 18.6849 9.9726H29.9454C30.7899 9.9726 31.353 10.5359 31.353 11.3808C31.353 12.2257 30.7899 12.789 29.9454 12.789Z" fill="#212121"/>
<path d="M27.1303 18.4219H18.6849C17.8404 18.4219 17.2773 17.8586 17.2773 17.0137C17.2773 16.1688 17.8404 15.6055 18.6849 15.6055H27.1303C27.9748 15.6055 28.5378 16.1688 28.5378 17.0137C28.5378 17.8586 27.9748 18.4219 27.1303 18.4219Z" fill="#212121"/>
<path d="M14.4622 36.7287C12.0693 36.7287 10.2395 34.8981 10.2395 32.5041C10.2395 30.1101 12.0693 28.2794 14.4622 28.2794C16.855 28.2794 18.6849 30.1101 18.6849 32.5041C18.6849 34.8981 16.855 36.7287 14.4622 36.7287ZM14.4622 31.0959C13.6177 31.0959 13.0546 31.6591 13.0546 32.5041C13.0546 33.349 13.6177 33.9123 14.4622 33.9123C15.3067 33.9123 15.8698 33.349 15.8698 32.5041C15.8698 31.6591 15.3067 31.0959 14.4622 31.0959Z" fill="#212121"/>
<path d="M38.3908 36.7287C35.9979 36.7287 34.1681 34.8981 34.1681 32.5041C34.1681 30.1101 35.9979 28.2794 38.3908 28.2794C40.7836 28.2794 42.6135 30.1101 42.6135 32.5041C42.6135 34.8981 40.7836 36.7287 38.3908 36.7287ZM38.3908 31.0959C37.5462 31.0959 36.9832 31.6591 36.9832 32.5041C36.9832 33.349 37.5462 33.9123 38.3908 33.9123C39.2353 33.9123 39.7983 33.349 39.7983 32.5041C39.7983 31.6591 39.2353 31.0959 38.3908 31.0959Z" fill="#212121"/>
</svg>
